<svg xmlns="http://www.w3.org/2000/svg" viewBox="0 0 200 200" width="32" height="32">
  <defs>
    <linearGradient id="waveGradient" x1="0%" y1="0%" x2="100%" y2="100%">
      <stop offset="0%" style="stop-color:#6366f1"/>
      <stop offset="50%" style="stop-color:#8b5cf6"/>
      <stop offset="100%" style="stop-color:#a855f7"/>
    </linearGradient>
    <linearGradient id="waveGradient2" x1="0%" y1="0%" x2="100%" y2="100%">
      <stop offset="0%" style="stop-color:#8b5cf6"/>
      <stop offset="100%" style="stop-color:#c084fc"/>
    </linearGradient>
    <linearGradient id="waveGradient3" x1="0%" y1="0%" x2="100%" y2="100%">
      <stop offset="0%" style="stop-color:#a855f7"/>
      <stop offset="100%" style="stop-color:#d8b4fe"/>
    </linearGradient>
  </defs>
  <rect x="5" y="5" width="190" height="190" rx="38" ry="38" fill="#0f0f23"/>
  <rect x="25" y="45" width="8" height="35" rx="4" fill="url(#waveGradient3)" opacity="0.7"/>
  <rect x="42" y="55" width="8" height="50" rx="4" fill="url(#waveGradient2)" opacity="0.8"/>
  <rect x="59" y="70" width="8" height="55" rx="4" fill="url(#waveGradient)" opacity="0.9"/>
  <rect x="76" y="85" width="8" height="60" rx="4" fill="url(#waveGradient)"/>
  <rect x="96" y="110" width="8" height="55" rx="4" fill="url(#waveGradient)"/>
  <rect x="116" y="85" width="8" height="60" rx="4" fill="url(#waveGradient)"/>
  <rect x="133" y="70" width="8" height="55" rx="4" fill="url(#waveGradient)" opacity="0.9"/>
  <rect x="150" y="55" width="8" height="50" rx="4" fill="url(#waveGradient2)" opacity="0.8"/>
  <rect x="167" y="45" width="8" height="35" rx="4" fill="url(#waveGradient3)" opacity="0.7"/>
</svg>
